<?xml version="1.0" encoding="UTF-8" standalone="no"?><!DOCTYPE svg PUBLIC "-//W3C//DTD SVG 1.1//EN" "http://www.w3.org/Graphics/SVG/1.1/DTD/svg11.dtd"><svg width="100%" height="100%" viewBox="0 0 256 192" version="1.1" xmlns="http://www.w3.org/2000/svg" xmlns:xlink="http://www.w3.org/1999/xlink" xml:space="preserve" xmlns:serif="http://www.serif.com/" style="fill-rule:evenodd;clip-rule:evenodd;stroke-linejoin:round;stroke-miterlimit:2;"><path d="M155,20.25l0,47.25c-0,2.485 -2.015,4.5 -4.5,4.5l-45,-0c-1.193,-0 -2.338,-0.474 -3.182,-1.318c-0.844,-0.844 -1.318,-1.989 -1.318,-3.182l-0,-63c-0,-2.485 2.015,-4.5 4.5,-4.5l29.25,-0l20.25,20.25Zm-38.25,-11.25l-6.75,0l0,6.75l6.75,0l0,-6.75Zm29.25,22.5l-22.5,0l0,4.5l22.5,0l0,-4.5Zm-15.75,27l-20.25,0l0,4.5l20.25,0l0,-4.5Zm15.75,-9l-36,0l0,4.5l36,0l0,-4.5Zm1.125,-30.375l-11.25,-11.25l0,9c-0,0.597 0.237,1.169 0.659,1.591c0.422,0.422 0.994,0.659 1.591,0.659l9,0Zm-1.125,21.375l-36,0l0,4.5l36,0l0,-4.5Zm-36,-18l0,6.75l2.219,0l-1.11,6.75l3.421,0l2.219,-6.75l0,-6.75l-6.75,0Z"/><path d="M39.04,88.904l9.344,0l0,9.344l-9.344,0l0,-9.344Zm0,12.544l9.344,0l0,31.232l-9.344,0l0,-31.232Zm65.536,31.232l-9.344,0l0,-17.792c0,-2.048 -0.384,-3.584 -1.152,-4.608c-0.768,-0.896 -1.792,-1.408 -2.944,-1.408c-0.64,0 -1.664,0.128 -2.304,0.384c-0.64,0.256 -1.28,0.64 -1.792,1.152c-0.512,0.512 -1.024,1.152 -1.536,1.792c-0.512,0.64 -0.896,1.408 -1.152,2.176l0,18.304l-9.344,0l0,-17.792c0,-2.048 -0.384,-3.584 -1.152,-4.608c-0.768,-0.896 -1.92,-1.408 -3.2,-1.408c-1.28,0 -2.56,0.512 -3.712,1.536c-1.28,1.024 -2.048,2.432 -2.816,4.096l0,18.176l-9.344,0l0,-31.232l9.216,0l0,3.712c1.024,-1.408 2.432,-2.432 3.968,-3.2c2.048,-1.024 4.352,-1.536 6.912,-1.536c1.28,0 2.432,0.128 3.456,0.512c1.024,0.384 1.792,0.768 2.56,1.28c0.768,0.512 1.28,1.28 1.792,1.92c0.384,0.768 0.768,1.536 1.024,2.432c1.152,-1.92 2.816,-3.456 4.736,-4.608c1.92,-1.024 4.352,-1.536 6.784,-1.536c2.048,0 3.584,0.384 4.864,1.152c1.28,0.768 2.176,1.664 2.816,2.944c0.64,1.152 1.152,2.432 1.408,3.84c0.256,1.408 0.256,2.944 0.256,4.096l0,20.224Zm-73.856,-21.76c-1.152,-1.024 -2.56,-1.792 -4.224,-2.432c-1.664,-0.64 -3.456,-1.28 -5.504,-1.792c-1.536,-0.384 -2.816,-0.768 -3.968,-1.024c-1.152,-0.384 -2.048,-0.64 -2.816,-1.024c-0.768,-0.384 -1.28,-0.768 -1.664,-1.28c-0.384,-0.512 -0.512,-1.024 -0.512,-1.792c0,-2.432 1.792,-3.584 5.248,-3.584c1.28,0 2.56,0.128 3.84,0.512c1.28,0.384 2.432,0.768 3.584,1.28c1.024,0.512 2.048,0.896 2.688,1.408c0.512,0.384 1.664,1.152 2.688,1.92l2.944,-9.216c-0.896,-0.512 -2.048,-1.152 -3.2,-1.664c-1.152,-0.512 -2.432,-1.024 -3.712,-1.536c-1.28,-0.384 -2.688,-0.768 -4.224,-1.024c-1.408,-0.256 -2.944,-0.384 -4.352,-0.384c-2.048,-0.384 -4.096,-0.128 -6.016,0.512c-1.92,0.64 -3.584,1.536 -4.992,2.688c-1.408,1.152 -2.56,2.688 -3.456,4.352c-0.896,1.792 -1.28,3.712 -1.28,6.016c0,1.664 0.256,3.072 0.768,4.224c0.512,1.152 1.152,2.304 2.176,3.2c0.896,0.896 2.176,1.792 3.584,2.432c1.408,0.768 3.2,1.408 5.12,1.92c1.536,0.384 2.816,0.896 4.096,1.152c1.28,0.384 2.304,0.768 3.328,1.152c0.896,0.384 1.664,0.896 2.176,1.408c0.512,0.512 0.768,1.152 0.768,2.048c0,2.176 -1.792,3.2 -5.248,3.2c-1.664,0 -3.328,-0.256 -4.864,-0.64c-1.664,-0.384 -3.072,-0.896 -4.352,-1.536c-1.28,-0.512 -2.432,-1.152 -3.328,-1.664c-0.64,-0.384 -2.048,-1.408 -2.816,-2.048l-3.2,9.6c1.28,0.896 2.56,1.536 4.096,2.176c1.408,0.64 2.944,1.152 4.608,1.664c1.536,0.512 3.2,0.768 4.864,1.024c1.664,0.256 3.2,0.384 4.864,0.384c2.048,0 4.096,-0.256 6.016,-0.64c1.92,-0.512 3.584,-1.152 5.12,-2.176c1.536,-1.024 2.688,-2.432 3.584,-4.096c0.896,-1.664 1.408,-3.712 1.408,-6.144c0,-1.92 -0.256,-3.712 -0.896,-5.12c-0.896,-1.28 -1.792,-2.56 -2.944,-3.456m99.456,-10.496c-4.096,0 -7.424,1.92 -9.984,5.376l0,-4.352l-9.344,0l0,43.648l9.344,0l0,-17.664c2.432,3.712 5.888,5.632 10.88,5.632c8.832,0 14.08,-7.296 14.08,-16.384c0,-8.96 -6.528,-16.256 -14.976,-16.256m-2.304,24.704c-2.688,0 -5.248,-1.92 -6.656,-4.48l0,-8.704c1.408,-2.048 3.584,-3.328 6.4,-3.328c4.352,0 7.552,3.456 7.552,8.192c0,4.608 -3.2,8.32 -7.296,8.32m38.4,-1.536c-1.024,0.896 -2.432,1.408 -3.84,1.408c-2.944,0.128 -3.328,-1.792 -3.328,-4.096l0,-32l-9.344,0l0,36.608c0,4.224 3.072,7.552 7.936,7.552c3.968,0 7.808,-0.768 10.752,-2.688l-2.176,-6.784Zm5.376,-34.688l9.344,0l0,9.344l-9.344,0l0,-9.344Zm0,12.544l9.344,0l0,31.232l-9.344,0l0,-31.232Zm59.392,0l-6.272,23.296l-6.272,-23.296l-9.344,0l10.496,32.512c-0.768,2.816 -2.176,4.48 -4.992,4.096c-0.768,-0.128 -1.664,-0.256 -2.432,-0.512l0,7.808c1.408,0.512 2.944,0.768 4.608,0.768c5.76,0 9.984,-3.456 11.648,-8.32l11.776,-36.48l-9.216,0l0,0.128Zm24.96,0l-9.344,0l0,9.344l9.344,0l0,-9.344Zm-9.344,18.688l0,9.344l3.072,0l-1.536,9.344l4.736,0l3.072,-9.344l0,-9.344l-9.344,0Zm-48.384,-20.096c0,-2.688 1.536,-4.224 4.096,-3.968c2.176,0.128 4.224,1.024 5.888,2.048l2.304,-7.04c-3.456,-2.048 -6.912,-2.944 -10.496,-3.072c-7.168,-0.256 -11.136,5.888 -11.136,12.416l0,3.712l-4.736,0l0,7.296l4.736,0l0,21.248l9.344,0l0,-21.376l7.808,0l0,-7.296l-7.808,0l0,-3.968Z" style="fill-rule:nonzero;"/><g><path d="M98.826,154.649c-0.386,-0.45 -0.901,-0.885 -1.544,-1.303c-0.643,-0.418 -1.367,-0.796 -2.172,-1.134c-0.804,-0.338 -1.681,-0.611 -2.63,-0.82c-0.949,-0.209 -1.938,-0.314 -2.968,-0.314c-2.638,0 -4.584,0.499 -5.839,1.496c-1.255,0.997 -1.882,2.365 -1.882,4.102c0,1.223 0.322,2.188 0.965,2.895c0.643,0.708 1.633,1.287 2.968,1.737c1.335,0.45 3.032,0.917 5.091,1.399c2.381,0.515 4.44,1.142 6.177,1.882c1.737,0.74 3.072,1.729 4.005,2.968c0.933,1.239 1.399,2.887 1.399,4.946c0,1.641 -0.314,3.064 -0.941,4.271c-0.627,1.206 -1.504,2.204 -2.63,2.992c-1.126,0.788 -2.445,1.367 -3.957,1.737c-1.512,0.37 -3.153,0.555 -4.922,0.555c-1.737,0 -3.434,-0.185 -5.091,-0.555c-1.657,-0.37 -3.225,-0.909 -4.705,-1.617c-1.48,-0.708 -2.863,-1.592 -4.15,-2.654l2.075,-3.668c0.515,0.547 1.182,1.086 2.003,1.617c0.82,0.531 1.753,1.021 2.799,1.472c1.046,0.45 2.18,0.812 3.402,1.086c1.223,0.273 2.477,0.41 3.764,0.41c2.445,0 4.343,-0.442 5.694,-1.327c1.351,-0.885 2.027,-2.18 2.027,-3.885c0,-1.287 -0.378,-2.316 -1.134,-3.088c-0.756,-0.772 -1.874,-1.416 -3.354,-1.93c-1.48,-0.515 -3.282,-1.029 -5.405,-1.544c-2.316,-0.579 -4.263,-1.214 -5.839,-1.906c-1.576,-0.692 -2.759,-1.601 -3.547,-2.727c-0.788,-1.126 -1.182,-2.59 -1.182,-4.391c0,-2.188 0.531,-4.038 1.592,-5.55c1.062,-1.512 2.525,-2.654 4.391,-3.426c1.866,-0.772 3.973,-1.158 6.322,-1.158c1.544,0 2.984,0.161 4.319,0.483c1.335,0.322 2.582,0.772 3.74,1.351c1.158,0.579 2.22,1.271 3.185,2.075l-2.027,3.523Z" style="fill-rule:nonzero;"/><path d="M107.174,171.635l0,-15.105l4.247,0l0,14.284c0,2.574 0.45,4.504 1.351,5.791c0.901,1.287 2.236,1.93 4.005,1.93c1.158,0 2.276,-0.249 3.354,-0.748c1.078,-0.499 2.051,-1.214 2.92,-2.147c0.869,-0.933 1.544,-2.043 2.027,-3.33l0,-15.78l4.247,0l0,20.365c0,0.515 0.105,0.893 0.314,1.134c0.209,0.241 0.555,0.378 1.038,0.41l0,3.282c-0.483,0.064 -0.861,0.105 -1.134,0.121c-0.273,0.016 -0.539,0.024 -0.796,0.024c-0.804,0 -1.496,-0.249 -2.075,-0.748c-0.579,-0.499 -0.885,-1.118 -0.917,-1.858l-0.097,-2.944c-1.094,1.866 -2.566,3.314 -4.416,4.343c-1.85,1.029 -3.869,1.544 -6.056,1.544c-2.638,0 -4.633,-0.893 -5.984,-2.678c-1.351,-1.786 -2.027,-4.416 -2.027,-7.89Z" style="fill-rule:nonzero;"/><path d="M149.979,182.204c-2.059,0 -3.893,-0.515 -5.501,-1.544c-1.609,-1.029 -2.879,-2.332 -3.812,-3.909l0,15.249l-4.247,0l0,-35.469l3.764,0l0,4.729c0.997,-1.544 2.3,-2.791 3.909,-3.74c1.609,-0.949 3.362,-1.424 5.26,-1.424c1.737,0 3.33,0.354 4.777,1.062c1.448,0.708 2.702,1.673 3.764,2.895c1.062,1.223 1.89,2.614 2.485,4.174c0.595,1.56 0.893,3.193 0.893,4.898c0,2.381 -0.475,4.568 -1.424,6.563c-0.949,1.995 -2.276,3.579 -3.981,4.753c-1.705,1.174 -3.668,1.761 -5.887,1.761Zm-1.303,-3.668c1.255,0 2.389,-0.265 3.402,-0.796c1.013,-0.531 1.882,-1.239 2.606,-2.123c0.724,-0.885 1.279,-1.89 1.665,-3.016c0.386,-1.126 0.579,-2.284 0.579,-3.475c0,-1.255 -0.217,-2.445 -0.651,-3.571c-0.434,-1.126 -1.046,-2.123 -1.834,-2.992c-0.788,-0.869 -1.705,-1.552 -2.751,-2.051c-1.046,-0.499 -2.18,-0.748 -3.402,-0.748c-0.772,0 -1.568,0.145 -2.389,0.434c-0.82,0.29 -1.601,0.7 -2.34,1.231c-0.74,0.531 -1.367,1.134 -1.882,1.81c-0.515,0.676 -0.853,1.399 -1.013,2.172l0,7.19c0.483,1.094 1.126,2.091 1.93,2.992c0.804,0.901 1.737,1.617 2.799,2.147c1.062,0.531 2.155,0.796 3.282,0.796Z" style="fill-rule:nonzero;"/><path d="M180.043,182.204c-2.059,0 -3.893,-0.515 -5.501,-1.544c-1.609,-1.029 -2.879,-2.332 -3.812,-3.909l0,15.249l-4.247,0l0,-35.469l3.764,0l0,4.729c0.997,-1.544 2.3,-2.791 3.909,-3.74c1.609,-0.949 3.362,-1.424 5.26,-1.424c1.737,0 3.33,0.354 4.777,1.062c1.448,0.708 2.702,1.673 3.764,2.895c1.062,1.223 1.89,2.614 2.485,4.174c0.595,1.56 0.893,3.193 0.893,4.898c0,2.381 -0.475,4.568 -1.424,6.563c-0.949,1.995 -2.276,3.579 -3.981,4.753c-1.705,1.174 -3.668,1.761 -5.887,1.761Zm-1.303,-3.668c1.255,0 2.389,-0.265 3.402,-0.796c1.013,-0.531 1.882,-1.239 2.606,-2.123c0.724,-0.885 1.279,-1.89 1.665,-3.016c0.386,-1.126 0.579,-2.284 0.579,-3.475c0,-1.255 -0.217,-2.445 -0.651,-3.571c-0.434,-1.126 -1.046,-2.123 -1.834,-2.992c-0.788,-0.869 -1.705,-1.552 -2.751,-2.051c-1.046,-0.499 -2.18,-0.748 -3.402,-0.748c-0.772,0 -1.568,0.145 -2.389,0.434c-0.82,0.29 -1.601,0.7 -2.34,1.231c-0.74,0.531 -1.367,1.134 -1.882,1.81c-0.515,0.676 -0.853,1.399 -1.013,2.172l0,7.19c0.483,1.094 1.126,2.091 1.93,2.992c0.804,0.901 1.737,1.617 2.799,2.147c1.062,0.531 2.155,0.796 3.282,0.796Z" style="fill-rule:nonzero;"/><path d="M207.55,182.204c-1.898,0 -3.619,-0.346 -5.164,-1.038c-1.544,-0.692 -2.879,-1.641 -4.005,-2.847c-1.126,-1.206 -1.995,-2.598 -2.606,-4.174c-0.611,-1.576 -0.917,-3.233 -0.917,-4.971c0,-1.769 0.306,-3.442 0.917,-5.019c0.611,-1.576 1.48,-2.968 2.606,-4.174c1.126,-1.206 2.469,-2.155 4.029,-2.847c1.56,-0.692 3.29,-1.038 5.188,-1.038c1.866,0 3.571,0.346 5.115,1.038c1.544,0.692 2.887,1.641 4.029,2.847c1.142,1.206 2.019,2.598 2.63,4.174c0.611,1.576 0.917,3.249 0.917,5.019c0,1.737 -0.306,3.394 -0.917,4.971c-0.611,1.576 -1.48,2.968 -2.606,4.174c-1.126,1.206 -2.469,2.155 -4.029,2.847c-1.56,0.692 -3.29,1.038 -5.188,1.038Zm-8.349,-12.981c0,1.737 0.378,3.314 1.134,4.729c0.756,1.416 1.761,2.534 3.016,3.354c1.255,0.82 2.654,1.231 4.198,1.231c1.544,0 2.952,-0.418 4.223,-1.255c1.271,-0.836 2.284,-1.971 3.04,-3.402c0.756,-1.432 1.134,-3.016 1.134,-4.753c0,-1.737 -0.378,-3.314 -1.134,-4.729c-0.756,-1.416 -1.769,-2.542 -3.04,-3.378c-1.271,-0.836 -2.678,-1.255 -4.223,-1.255c-1.544,0 -2.944,0.426 -4.198,1.279c-1.255,0.853 -2.26,1.987 -3.016,3.402c-0.756,1.416 -1.134,3.008 -1.134,4.777Z" style="fill-rule:nonzero;"/><path d="M238.772,160.247c-2.123,0.032 -3.997,0.571 -5.622,1.617c-1.625,1.046 -2.775,2.485 -3.45,4.319l0,15.539l-4.247,0l0,-25.19l3.957,0l0,5.839c0.869,-1.737 2.019,-3.145 3.45,-4.223c1.432,-1.078 2.936,-1.681 4.512,-1.81l0.82,0c0.225,0 0.418,0.016 0.579,0.048l0,3.861Z" style="fill-rule:nonzero;"/><path d="M256,180.466c-0.354,0.161 -0.836,0.37 -1.448,0.627c-0.611,0.257 -1.319,0.483 -2.123,0.676c-0.804,0.193 -1.657,0.29 -2.558,0.29c-1.029,0 -1.979,-0.185 -2.847,-0.555c-0.869,-0.37 -1.56,-0.949 -2.075,-1.737c-0.515,-0.788 -0.772,-1.777 -0.772,-2.968l0,-16.938l-3.426,0l0,-3.33l3.426,0l0,-8.397l4.247,0l0,8.397l5.646,0l0,3.33l-5.646,0l0,15.635c0.064,0.901 0.37,1.568 0.917,2.003c0.547,0.434 1.19,0.651 1.93,0.651c0.836,0 1.609,-0.145 2.316,-0.434c0.708,-0.29 1.174,-0.499 1.399,-0.627l1.013,3.378Z" style="fill-rule:nonzero;"/></g></svg>