<?xml version="1.0" encoding="UTF-8" standalone="no"?><!DOCTYPE svg PUBLIC "-//W3C//DTD SVG 1.1//EN" "http://www.w3.org/Graphics/SVG/1.1/DTD/svg11.dtd"><svg width="100%" height="100%" viewBox="0 0 768 96" version="1.1" xmlns="http://www.w3.org/2000/svg" xmlns:xlink="http://www.w3.org/1999/xlink" xml:space="preserve" xmlns:serif="http://www.serif.com/" style="fill-rule:evenodd;clip-rule:evenodd;stroke-linejoin:round;stroke-miterlimit:2;"><path d="M72,27l0,63c-0,3.314 -2.686,6 -6,6l-60,-0c-1.591,-0 -3.117,-0.632 -4.243,-1.757c-1.125,-1.125 -1.757,-2.651 -1.757,-4.243l-0,-84c-0,-3.314 2.686,-6 6,-6l39,-0l27,27Zm-51,-15l-9,0l0,9l9,0l0,-9Zm39,30l-30,0l0,6l30,0l0,-6Zm-21,36l-27,0l-0,6l27,0l0,-6Zm21,-12l-48,0l-0,6l48,0l0,-6Zm1.5,-40.5l-15,-15l0,12c-0,0.796 0.316,1.559 0.879,2.121c0.563,0.563 1.326,0.879 2.121,0.879l12,0Zm-1.5,28.5l-48,0l-0,6l48,0l0,-6Zm-48,-24l-0,9l2.959,0l-1.479,9l4.562,0l2.959,-9l0,-9l-9,0Z"/><path d="M145.737,15.236l12.766,0l0,12.766l-12.766,0l0,-12.766Zm0,17.138l12.766,0l0,42.671l-12.766,0l0,-42.671Zm89.54,42.671l-12.766,0l0,-24.309c0,-2.798 -0.525,-4.897 -1.574,-6.296c-1.049,-1.224 -2.448,-1.924 -4.022,-1.924c-0.874,0 -2.273,0.175 -3.148,0.525c-0.874,0.35 -1.749,0.874 -2.448,1.574c-0.7,0.7 -1.399,1.574 -2.099,2.448c-0.7,0.874 -1.224,1.924 -1.574,2.973l0,25.008l-12.766,0l0,-24.309c0,-2.798 -0.525,-4.897 -1.574,-6.296c-1.049,-1.224 -2.623,-1.924 -4.372,-1.924c-1.749,0 -3.498,0.7 -5.072,2.099c-1.749,1.399 -2.798,3.323 -3.847,5.596l0,24.833l-12.766,0l0,-42.671l12.592,0l0,5.072c1.399,-1.924 3.323,-3.323 5.421,-4.372c2.798,-1.399 5.946,-2.099 9.444,-2.099c1.749,0 3.323,0.175 4.722,0.7c1.399,0.525 2.448,1.049 3.498,1.749c1.049,0.7 1.749,1.749 2.448,2.623c0.525,1.049 1.049,2.099 1.399,3.323c1.574,-2.623 3.847,-4.722 6.471,-6.296c2.623,-1.399 5.946,-2.099 9.269,-2.099c2.798,0 4.897,0.525 6.646,1.574c1.749,1.049 2.973,2.273 3.847,4.022c0.874,1.574 1.574,3.323 1.924,5.246c0.35,1.924 0.35,4.022 0.35,5.596l0,27.631Zm-100.907,-29.73c-1.574,-1.399 -3.498,-2.448 -5.771,-3.323c-2.273,-0.874 -4.722,-1.749 -7.52,-2.448c-2.099,-0.525 -3.847,-1.049 -5.421,-1.399c-1.574,-0.525 -2.798,-0.874 -3.847,-1.399c-1.049,-0.525 -1.749,-1.049 -2.273,-1.749c-0.525,-0.7 -0.7,-1.399 -0.7,-2.448c0,-3.323 2.448,-4.897 7.17,-4.897c1.749,0 3.498,0.175 5.246,0.7c1.749,0.525 3.323,1.049 4.897,1.749c1.399,0.7 2.798,1.224 3.673,1.924c0.7,0.525 2.273,1.574 3.673,2.623l4.022,-12.592c-1.224,-0.7 -2.798,-1.574 -4.372,-2.273c-1.574,-0.7 -3.323,-1.399 -5.072,-2.099c-1.749,-0.525 -3.673,-1.049 -5.771,-1.399c-1.924,-0.35 -4.022,-0.525 -5.946,-0.525c-2.798,-0.525 -5.596,-0.175 -8.219,0.7c-2.623,0.874 -4.897,2.099 -6.82,3.673c-1.924,1.574 -3.498,3.673 -4.722,5.946c-1.224,2.448 -1.749,5.072 -1.749,8.219c0,2.273 0.35,4.197 1.049,5.771c0.7,1.574 1.574,3.148 2.973,4.372c1.224,1.224 2.973,2.448 4.897,3.323c1.924,1.049 4.372,1.924 6.995,2.623c2.099,0.525 3.847,1.224 5.596,1.574c1.749,0.525 3.148,1.049 4.547,1.574c1.224,0.525 2.273,1.224 2.973,1.924c0.7,0.7 1.049,1.574 1.049,2.798c0,2.973 -2.448,4.372 -7.17,4.372c-2.273,0 -4.547,-0.35 -6.646,-0.874c-2.273,-0.525 -4.197,-1.224 -5.946,-2.099c-1.749,-0.7 -3.323,-1.574 -4.547,-2.273c-0.874,-0.525 -2.798,-1.924 -3.847,-2.798l-4.372,13.116c1.749,1.224 3.498,2.099 5.596,2.973c1.924,0.874 4.022,1.574 6.296,2.273c2.099,0.7 4.372,1.049 6.646,1.399c2.273,0.35 4.372,0.525 6.646,0.525c2.798,0 5.596,-0.35 8.219,-0.874c2.623,-0.7 4.897,-1.574 6.995,-2.973c2.099,-1.399 3.673,-3.323 4.897,-5.596c1.224,-2.273 1.924,-5.072 1.924,-8.394c0,-2.623 -0.35,-5.072 -1.224,-6.995c-1.224,-1.749 -2.448,-3.498 -4.022,-4.722m135.883,-14.34c-5.596,0 -10.143,2.623 -13.641,7.345l0,-5.946l-12.766,0l0,59.635l12.766,0l0,-24.134c3.323,5.072 8.045,7.695 14.865,7.695c12.067,0 19.237,-9.968 19.237,-22.385c0,-12.242 -8.919,-22.21 -20.461,-22.21m-3.148,33.752c-3.673,0 -7.17,-2.623 -9.094,-6.121l0,-11.892c1.924,-2.798 4.897,-4.547 8.744,-4.547c5.946,0 10.318,4.722 10.318,11.192c0,6.296 -4.372,11.367 -9.968,11.367m52.465,-2.099c-1.399,1.224 -3.323,1.924 -5.246,1.924c-4.022,0.175 -4.547,-2.448 -4.547,-5.596l0,-43.721l-12.766,0l0,50.016c0,5.771 4.197,10.318 10.843,10.318c5.421,0 10.668,-1.049 14.69,-3.673l-2.973,-9.269Zm7.345,-47.393l12.766,0l0,12.766l-12.766,0l0,-12.766Zm0,17.138l12.766,0l0,42.671l-12.766,0l0,-42.671Zm81.145,0l-8.569,31.829l-8.569,-31.829l-12.766,0l14.34,44.42c-1.049,3.847 -2.973,6.121 -6.82,5.596c-1.049,-0.175 -2.273,-0.35 -3.323,-0.7l0,10.668c1.924,0.7 4.022,1.049 6.296,1.049c7.87,0 13.641,-4.722 15.914,-11.367l16.089,-49.841l-12.592,0l0,0.175Zm34.102,0l-12.766,0l0,12.766l12.766,0l0,-12.766Zm-12.766,25.533l0,12.766l4.197,0l-2.099,12.766l6.471,0l4.197,-12.766l0,-12.766l-12.766,0Zm-66.105,-27.457c0,-3.673 2.099,-5.771 5.596,-5.421c2.973,0.175 5.771,1.399 8.045,2.798l3.148,-9.619c-4.722,-2.798 -9.444,-4.022 -14.34,-4.197c-9.793,-0.35 -15.215,8.045 -15.215,16.964l0,5.072l-6.471,0l0,9.968l6.471,0l0,29.03l12.766,0l0,-29.205l10.668,0l0,-9.968l-10.668,0l0,-5.421Z" style="fill-rule:nonzero;"/><g><path d="M504.189,29.349c-0.648,-0.756 -1.512,-1.485 -2.592,-2.187c-1.08,-0.702 -2.295,-1.336 -3.645,-1.903c-1.35,-0.567 -2.821,-1.026 -4.414,-1.377c-1.593,-0.351 -3.253,-0.526 -4.981,-0.526c-4.428,0 -7.695,0.837 -9.801,2.511c-2.106,1.674 -3.159,3.969 -3.159,6.885c0,2.052 0.54,3.672 1.62,4.86c1.08,1.188 2.74,2.16 4.981,2.916c2.241,0.756 5.089,1.539 8.545,2.349c3.996,0.864 7.452,1.917 10.368,3.159c2.916,1.242 5.157,2.902 6.723,4.981c1.566,2.079 2.349,4.846 2.349,8.302c0,2.754 -0.526,5.143 -1.579,7.168c-1.053,2.025 -2.524,3.699 -4.414,5.022c-1.89,1.323 -4.104,2.295 -6.642,2.916c-2.538,0.621 -5.292,0.931 -8.262,0.931c-2.916,0 -5.764,-0.31 -8.545,-0.931c-2.781,-0.621 -5.413,-1.525 -7.897,-2.713c-2.484,-1.188 -4.806,-2.673 -6.966,-4.455l3.483,-6.156c0.864,0.918 1.984,1.822 3.361,2.713c1.377,0.891 2.943,1.714 4.698,2.47c1.755,0.756 3.658,1.363 5.71,1.822c2.052,0.459 4.158,0.688 6.318,0.688c4.104,0 7.29,-0.742 9.558,-2.227c2.268,-1.485 3.402,-3.658 3.402,-6.52c0,-2.16 -0.634,-3.888 -1.903,-5.184c-1.269,-1.296 -3.145,-2.376 -5.629,-3.24c-2.484,-0.864 -5.508,-1.728 -9.072,-2.592c-3.888,-0.972 -7.155,-2.038 -9.801,-3.199c-2.646,-1.161 -4.63,-2.686 -5.953,-4.576c-1.323,-1.89 -1.984,-4.347 -1.984,-7.371c0,-3.672 0.891,-6.777 2.673,-9.315c1.782,-2.538 4.239,-4.455 7.371,-5.751c3.132,-1.296 6.669,-1.944 10.611,-1.944c2.592,0 5.008,0.27 7.249,0.81c2.241,0.54 4.333,1.296 6.277,2.268c1.944,0.972 3.726,2.133 5.346,3.483l-3.402,5.913Z" style="fill-rule:nonzero;"/><path d="M518.202,57.861l0,-25.352l7.128,0l0,23.975c0,4.32 0.756,7.56 2.268,9.72c1.512,2.16 3.753,3.24 6.723,3.24c1.944,0 3.82,-0.418 5.629,-1.255c1.809,-0.837 3.442,-2.038 4.9,-3.604c1.458,-1.566 2.592,-3.429 3.402,-5.589l0,-26.486l7.128,0l0,34.181c0,0.864 0.175,1.498 0.526,1.903c0.351,0.405 0.931,0.634 1.741,0.688l0,5.508c-0.81,0.108 -1.444,0.175 -1.903,0.202c-0.459,0.027 -0.904,0.04 -1.336,0.04c-1.35,0 -2.511,-0.418 -3.483,-1.255c-0.972,-0.837 -1.485,-1.876 -1.539,-3.118l-0.162,-4.941c-1.836,3.132 -4.306,5.562 -7.411,7.29c-3.105,1.728 -6.493,2.592 -10.165,2.592c-4.428,0 -7.776,-1.498 -10.044,-4.495c-2.268,-2.997 -3.402,-7.411 -3.402,-13.243Z" style="fill-rule:nonzero;"/><path d="M590.047,75.599c-3.456,0 -6.534,-0.864 -9.234,-2.592c-2.7,-1.728 -4.833,-3.915 -6.399,-6.561l0,25.595l-7.128,0l0,-59.534l6.318,0l0,7.938c1.674,-2.592 3.861,-4.684 6.561,-6.277c2.7,-1.593 5.643,-2.389 8.829,-2.389c2.916,0 5.589,0.594 8.019,1.782c2.43,1.188 4.536,2.808 6.318,4.86c1.782,2.052 3.172,4.387 4.171,7.006c0.999,2.619 1.498,5.359 1.498,8.221c0,3.996 -0.796,7.668 -2.389,11.016c-1.593,3.348 -3.82,6.007 -6.682,7.978c-2.862,1.971 -6.156,2.956 -9.882,2.956Zm-2.187,-6.156c2.106,0 4.009,-0.445 5.71,-1.336c1.701,-0.891 3.159,-2.079 4.374,-3.564c1.215,-1.485 2.146,-3.172 2.794,-5.062c0.648,-1.89 0.972,-3.834 0.972,-5.832c0,-2.106 -0.364,-4.104 -1.093,-5.994c-0.729,-1.89 -1.755,-3.564 -3.078,-5.022c-1.323,-1.458 -2.862,-2.605 -4.617,-3.442c-1.755,-0.837 -3.658,-1.255 -5.71,-1.255c-1.296,0 -2.632,0.243 -4.009,0.729c-1.377,0.486 -2.686,1.174 -3.928,2.065c-1.242,0.891 -2.295,1.903 -3.159,3.037c-0.864,1.134 -1.431,2.349 -1.701,3.645l0,12.069c0.81,1.836 1.89,3.51 3.24,5.022c1.35,1.512 2.916,2.713 4.698,3.604c1.782,0.891 3.618,1.336 5.508,1.336Z" style="fill-rule:nonzero;"/><path d="M640.509,75.599c-3.456,0 -6.534,-0.864 -9.234,-2.592c-2.7,-1.728 -4.833,-3.915 -6.399,-6.561l0,25.595l-7.128,0l0,-59.534l6.318,0l0,7.938c1.674,-2.592 3.861,-4.684 6.561,-6.277c2.7,-1.593 5.643,-2.389 8.829,-2.389c2.916,0 5.589,0.594 8.019,1.782c2.43,1.188 4.536,2.808 6.318,4.86c1.782,2.052 3.172,4.387 4.171,7.006c0.999,2.619 1.498,5.359 1.498,8.221c0,3.996 -0.796,7.668 -2.389,11.016c-1.593,3.348 -3.82,6.007 -6.682,7.978c-2.862,1.971 -6.156,2.956 -9.882,2.956Zm-2.187,-6.156c2.106,0 4.009,-0.445 5.71,-1.336c1.701,-0.891 3.159,-2.079 4.374,-3.564c1.215,-1.485 2.146,-3.172 2.794,-5.062c0.648,-1.89 0.972,-3.834 0.972,-5.832c0,-2.106 -0.364,-4.104 -1.093,-5.994c-0.729,-1.89 -1.755,-3.564 -3.078,-5.022c-1.323,-1.458 -2.862,-2.605 -4.617,-3.442c-1.755,-0.837 -3.658,-1.255 -5.71,-1.255c-1.296,0 -2.632,0.243 -4.009,0.729c-1.377,0.486 -2.686,1.174 -3.928,2.065c-1.242,0.891 -2.295,1.903 -3.159,3.037c-0.864,1.134 -1.431,2.349 -1.701,3.645l0,12.069c0.81,1.836 1.89,3.51 3.24,5.022c1.35,1.512 2.916,2.713 4.698,3.604c1.782,0.891 3.618,1.336 5.508,1.336Z" style="fill-rule:nonzero;"/><path d="M686.678,75.599c-3.186,0 -6.075,-0.58 -8.667,-1.741c-2.592,-1.161 -4.833,-2.754 -6.723,-4.779c-1.89,-2.025 -3.348,-4.36 -4.374,-7.006c-1.026,-2.646 -1.539,-5.427 -1.539,-8.343c0,-2.97 0.513,-5.778 1.539,-8.424c1.026,-2.646 2.484,-4.981 4.374,-7.006c1.89,-2.025 4.144,-3.618 6.763,-4.779c2.619,-1.161 5.521,-1.741 8.707,-1.741c3.132,0 5.994,0.58 8.586,1.741c2.592,1.161 4.846,2.754 6.763,4.779c1.917,2.025 3.388,4.36 4.414,7.006c1.026,2.646 1.539,5.454 1.539,8.424c0,2.916 -0.513,5.697 -1.539,8.343c-1.026,2.646 -2.484,4.981 -4.374,7.006c-1.89,2.025 -4.144,3.618 -6.763,4.779c-2.619,1.161 -5.521,1.741 -8.707,1.741Zm-14.013,-21.789c0,2.916 0.634,5.562 1.903,7.938c1.269,2.376 2.956,4.252 5.062,5.629c2.106,1.377 4.455,2.065 7.047,2.065c2.592,0 4.954,-0.702 7.087,-2.106c2.133,-1.404 3.834,-3.307 5.103,-5.71c1.269,-2.403 1.903,-5.062 1.903,-7.978c0,-2.916 -0.634,-5.562 -1.903,-7.938c-1.269,-2.376 -2.97,-4.266 -5.103,-5.67c-2.133,-1.404 -4.495,-2.106 -7.087,-2.106c-2.592,0 -4.941,0.715 -7.047,2.146c-2.106,1.431 -3.793,3.334 -5.062,5.71c-1.269,2.376 -1.903,5.049 -1.903,8.019Z" style="fill-rule:nonzero;"/><path d="M739.084,38.745c-3.564,0.054 -6.709,0.958 -9.436,2.713c-2.727,1.755 -4.657,4.171 -5.791,7.249l0,26.081l-7.128,0l0,-42.281l6.642,0l0,9.801c1.458,-2.916 3.388,-5.278 5.791,-7.087c2.403,-1.809 4.927,-2.821 7.573,-3.037l1.377,0c0.378,0 0.702,0.027 0.972,0.081l0,6.48Z" style="fill-rule:nonzero;"/><path d="M768,72.683c-0.594,0.27 -1.404,0.621 -2.43,1.053c-1.026,0.432 -2.214,0.81 -3.564,1.134c-1.35,0.324 -2.781,0.486 -4.293,0.486c-1.728,0 -3.321,-0.31 -4.779,-0.931c-1.458,-0.621 -2.619,-1.593 -3.483,-2.916c-0.864,-1.323 -1.296,-2.983 -1.296,-4.981l0,-28.43l-5.751,0l0,-5.589l5.751,0l0,-14.094l7.128,0l0,14.094l9.477,0l0,5.589l-9.477,0l0,26.243c0.108,1.512 0.621,2.632 1.539,3.361c0.918,0.729 1.998,1.093 3.24,1.093c1.404,0 2.7,-0.243 3.888,-0.729c1.188,-0.486 1.971,-0.837 2.349,-1.053l1.701,5.67Z" style="fill-rule:nonzero;"/></g></svg>